<svg xmlns="http://www.w3.org/2000/svg" xmlns:xlink="http://www.w3.org/1999/xlink" id="Layer_1" enable-background="new 0 0 512 512" version="1.1" viewBox="0 0 512 512" xml:space="preserve"><circle id="ellipse" cx="256" cy="256" r="256" fill="#F48024"/><g id="logo"><rect width="126" height="26.9" x="198.7" y="207.4" fill="#FFF" transform="matrix(-0.8613 -0.508 0.508 -0.8613 374.8696 544.0087)"/><rect width="126" height="26.9" x="179.9" y="255" fill="#FFF" transform="matrix(-0.9657 -0.2596 0.2596 -0.9657 407.7935 590.7263)"/><rect width="126" height="26.9" x="172.9" y="301.2" fill="#FFF" transform="matrix(-0.9958 -9.179588e-002 9.179588e-002 -0.9958 441.9307 649.6382)"/><rect width="126" height="26.9" x="170.2" y="341.4" fill="#FFF"/><path fill="#FFF" d="M339.1,404.6c0,0,0,6.3-0.2,6.3v0.1H137.3c0,0-6.3,0-6.3-0.1h-0.2V279.8h21.5v110h165.3v-110h21.5V404.6z"/><rect width="126" height="26.9" x="240.1" y="163.4" fill="#FFF" transform="matrix(0.5634 0.8262 -0.8262 0.5634 278.4269 -173.2552)"/><rect width="126" height="26.9" x="294.2" y="141.9" fill="#FFF" transform="matrix(0.171 0.9853 -0.9853 0.171 449.1696 -223.1233)"/></g></svg>